<?xml version="1.0" encoding="UTF-8" standalone="no"?>
<!-- Created with Inkscape (http://www.inkscape.org/) -->
<svg
   xmlns:dc="http://purl.org/dc/elements/1.1/"
   xmlns:cc="http://creativecommons.org/ns#"
   xmlns:rdf="http://www.w3.org/1999/02/22-rdf-syntax-ns#"
   xmlns:svg="http://www.w3.org/2000/svg"
   xmlns="http://www.w3.org/2000/svg"
   xmlns:sodipodi="http://sodipodi.sourceforge.net/DTD/sodipodi-0.dtd"
   xmlns:inkscape="http://www.inkscape.org/namespaces/inkscape"
   width="210mm"
   height="297mm"
   id="svg2"
   sodipodi:version="0.32"
   inkscape:version="0.46"
   sodipodi:docname="champDeVision.svg"
   inkscape:output_extension="org.inkscape.output.svg.inkscape"
   inkscape:export-filename="/home/carine/champDeVision.png"
   inkscape:export-xdpi="90"
   inkscape:export-ydpi="90">
  <defs
     id="defs4">
    <inkscape:perspective
       sodipodi:type="inkscape:persp3d"
       inkscape:vp_x="0 : 526.18109 : 1"
       inkscape:vp_y="0 : 1000 : 0"
       inkscape:vp_z="744.09448 : 526.18109 : 1"
       inkscape:persp3d-origin="372.04724 : 350.78739 : 1"
       id="perspective10" />
  </defs>
  <sodipodi:namedview
     id="base"
     pagecolor="#ffffff"
     bordercolor="#666666"
     borderopacity="1.0"
     inkscape:pageopacity="0.0"
     inkscape:pageshadow="2"
     inkscape:zoom="1.979899"
     inkscape:cx="233.29296"
     inkscape:cy="816.35047"
     inkscape:document-units="px"
     inkscape:current-layer="layer1"
     showgrid="true"
     inkscape:snap-global="false"
     inkscape:window-width="792"
     inkscape:window-height="684"
     inkscape:window-x="0"
     inkscape:window-y="27">
    <inkscape:grid
       type="xygrid"
       id="grid2383" />
  </sodipodi:namedview>
  <metadata
     id="metadata7">
    <rdf:RDF>
      <cc:Work
         rdf:about="">
        <dc:format>image/svg+xml</dc:format>
        <dc:type
           rdf:resource="http://purl.org/dc/dcmitype/StillImage" />
      </cc:Work>
    </rdf:RDF>
  </metadata>
  <g
     inkscape:label="Calque 1"
     inkscape:groupmode="layer"
     id="layer1">
    <path
       style="opacity:1;fill:#ffffff;fill-opacity:1;stroke:#000000;stroke-width:0.75;stroke-linecap:butt;stroke-linejoin:miter;stroke-miterlimit:4;stroke-dasharray:0.75, 1.5;stroke-dashoffset:0;stroke-opacity:1"
       d="M 159.0625 52.75 L 159.0625 152.9375 L 159.40625 152.9375 L 159.40625 153 L 159.46875 153 L 159.46875 152.8125 L 257.90625 152.8125 L 257.90625 52.75 L 159.0625 52.75 z M 257.90625 152.8125 L 257.90625 153 L 159.46875 153 L 159.46875 253.0625 L 258.3125 253.0625 L 258.3125 152.8125 L 257.90625 152.8125 z M 159.40625 153 L 159.0625 153 L 159.0625 152.9375 L 60.59375 152.9375 L 60.59375 253.1875 L 159.40625 253.1875 L 159.40625 153 z M 159.6875 253.21875 L 159.6875 353.46875 L 258.5 353.46875 L 258.5 253.21875 L 159.6875 253.21875 z M 159.6875 353.71875 L 159.6875 453.96875 L 258.5 453.96875 L 258.5 353.71875 L 159.6875 353.71875 z "
       id="rect2385" />
    <path
       style="fill:#d7d7d7;fill-opacity:1;stroke:#00ab00;stroke-width:0;stroke-linecap:butt;stroke-linejoin:miter;stroke-miterlimit:4;stroke-dasharray:0,0;stroke-dashoffset:0;stroke-opacity:1"
       d="M 160.02232,302.35268 C 169.89583,316.90476 206.78593,374.14625 225.58801,402.6269 C 227.22951,402.50333 226.69392,403.09201 228.29818,402.36741 C 224.77818,364.96587 178.48041,98.933184 171.66188,52.721404 C 167.52707,52.595135 165.05697,53.25834 159.6511,52.94296 C 159.76527,62.870064 160.29831,134.92374 160.07784,153.35902 C 154.52099,153.51747 141.61798,153.5356 120.83446,153.20069 C 128.12127,172.49752 150.04509,221.88466 160.8695,253.07659 C 160.97963,287.12567 159.99033,300.1224 160.02232,302.35268 z"
       id="rect3207"
       sodipodi:nodetypes="ccccccccc" />
    <path
       style="fill:#ff6223;fill-opacity:1;stroke:#000000;stroke-width:0.80383271;stroke-linecap:butt;stroke-linejoin:miter;stroke-miterlimit:4;stroke-dasharray:0.80383274, 1.60766547;stroke-dashoffset:0;stroke-opacity:1"
       d="M 226.08105,403.0079 L 228.33433,402.41697 L 241.84886,430.09266 L 228.44533,433.60778 L 226.08105,403.0079 z"
       id="rect3190"
       sodipodi:nodetypes="ccccc" />
    <path
       style="fill:none;fill-rule:evenodd;stroke:#00ab00;stroke-width:1;stroke-linecap:butt;stroke-linejoin:miter;stroke-miterlimit:4;stroke-dasharray:1,4;stroke-dashoffset:0;stroke-opacity:1"
       d="M 224.93928,401.3946 L 161.45245,303.34725"
       id="path3197" />
    <path
       style="fill:none;fill-rule:evenodd;stroke:#00ab00;stroke-width:1;stroke-linecap:butt;stroke-linejoin:miter;stroke-miterlimit:4;stroke-dasharray:1,4;stroke-dashoffset:0;stroke-opacity:1"
       d="M 225.67088,401.32831 L 119.8013,153.31696"
       id="path3201" />
    <path
       style="fill:none;fill-rule:evenodd;stroke:#00ab00;stroke-width:1;stroke-linecap:butt;stroke-linejoin:miter;stroke-miterlimit:4;stroke-dasharray:1,4;stroke-dashoffset:0;stroke-opacity:1"
       d="M 226.3982,401.04549 L 161.24783,153.59979"
       id="path3203" />
    <path
       style="fill:none;fill-rule:evenodd;stroke:#00ab00;stroke-width:0.96005833;stroke-linecap:butt;stroke-linejoin:miter;stroke-miterlimit:4;stroke-dasharray:0.9600584, 3.84023354;stroke-dashoffset:0;stroke-opacity:1"
       d="M 227.73298,401.37012 L 172.28743,53.270063"
       id="path3205"
       sodipodi:nodetypes="cc" />
  </g>
</svg>
